<?xml version="1.0" encoding="utf-8"?>
<svg viewBox="118.37140655517578 128.42315673828125 263.2958755493164 263.3948669433594" xmlns="http://www.w3.org/2000/svg" xmlns:bx="https://boxy-svg.com">
  <path d="M 250 260.175 m -131.54 0 a 131.54 131.54 0 1 0 263.08 0 a 131.54 131.54 0 1 0 -263.08 0 Z M 250 260.175 m -121.934 0 a 121.934 121.934 0 0 1 243.868 0 a 121.934 121.934 0 0 1 -243.868 0 Z" style="fill: rgb(37, 157, 91);" bx:shape="ring 250 260.175 121.934 121.934 131.54 131.54 1@539f747f"/>
  <rect transform="matrix(1, 0, 0, 0.999997, -104.089691, -298.196921)" x="272.891" y="554.402" width="162.435" height="10.404" style="fill: rgb(37, 157, 91);"/>
  <ellipse style="fill: rgb(216, 216, 216);" transform="matrix(1, 0, 0, 1, 6.345190354133273, -14.805426947248883)"/>
  <rect x="281.669" y="73.429" width="162.435" height="10.404" style="fill: rgb(37, 157, 91);" transform="matrix(0, 1, -0.999999, 0, 328.65036, -102.7659)"/>
</svg>