<?xml version="1.0" encoding="UTF-8"?>
<!DOCTYPE svg PUBLIC "-//W3C//DTD SVG 1.1//EN" "http://www.w3.org/Graphics/SVG/1.1/DTD/svg11.dtd">
<!-- Creator: CorelDRAW 2017 -->
<svg xmlns="http://www.w3.org/2000/svg" xml:space="preserve" width="67.4792mm" height="84.6666mm" version="1.1" style="shape-rendering:geometricPrecision; text-rendering:geometricPrecision; image-rendering:optimizeQuality; fill-rule:evenodd; clip-rule:evenodd"
viewBox="0 0 6747.92 8466.66"
 xmlns:xlink="http://www.w3.org/1999/xlink">
 <defs>
  <style type="text/css">
   <![CDATA[
    .fil0 {fill:#CC242C}
   ]]>
  </style>
 </defs>
 <g id="Слой_x0020_1">
  <metadata id="CorelCorpID_0Corel-Layer"/>
  <g id="_1991304706432">
   <path class="fil0" d="M5766.92 1522.46l-227.26 6136.17c-3.9,105.31 -96.66,194.51 -202.42,194.51l-3926.56 0c-105.66,0 -198.53,-89.53 -202.42,-194.51l-227.26 -6136.17c-6.27,-169.31 -148.6,-301.47 -317.91,-295.2 -169.31,6.27 -301.47,148.6 -295.2,317.9l227.26 6136.17c16.11,434.71 379.81,785.33 815.53,785.33l3926.56 0c435.49,0 799.4,-349.96 815.53,-785.33l227.26 -6136.17c6.27,-169.3 -125.89,-311.63 -295.2,-317.9 -169.31,-6.27 -311.64,125.89 -317.91,295.2z"/>
   <path class="fil0" d="M3128.55 2760.87l0 4171.98c0,135.54 109.87,245.41 245.41,245.41 135.54,0 245.41,-109.87 245.41,-245.41l0 -4171.98c0,-135.54 -109.87,-245.42 -245.41,-245.42 -135.54,0 -245.41,109.88 -245.41,245.42z"/>
   <path class="fil0" d="M1778.9 2768.08l122.71 4171.98c3.98,135.48 117.03,242.08 252.51,238.09 135.48,-3.98 242.08,-117.04 238.09,-252.52l-122.71 -4171.98c-3.98,-135.48 -117.03,-242.07 -252.51,-238.09 -135.48,3.99 -242.08,117.04 -238.09,252.52z"/>
   <path class="fil0" d="M4478.42 2753.65l-122.71 4171.98c-3.99,135.48 102.61,248.54 238.09,252.52 135.48,3.99 248.53,-102.61 252.51,-238.09l122.71 -4171.98c3.99,-135.48 -102.61,-248.53 -238.09,-252.52 -135.48,-3.98 -248.53,102.61 -252.51,238.09z"/>
   <path class="fil0" d="M306.33 1656.52l6135.26 0c169.42,0 306.76,-137.34 306.76,-306.77 0,-169.42 -137.34,-306.76 -306.76,-306.76l-6135.26 0c-169.42,0 -306.76,137.34 -306.76,306.76 0,169.43 137.34,306.77 306.76,306.77z"/>
   <path class="fil0" d="M2441.87 1249.97l127.74 -447.08c27.36,-95.75 151.48,-189.37 251.13,-189.37l1106.44 0c99.71,0 223.75,93.54 251.13,189.37l127.74 447.08 589.92 -168.55 -127.73 -447.07c-102.65,-359.27 -467.46,-634.35 -841.06,-634.35l-1106.44 0c-373.56,0 -738.44,275.18 -841.06,634.35l-127.73 447.07 589.92 168.55z"/>
  </g>
 </g>
</svg>
