<?xml version="1.0" encoding="UTF-8"?>
<!DOCTYPE svg PUBLIC "-//W3C//DTD SVG 1.1//EN" "http://www.w3.org/Graphics/SVG/1.1/DTD/svg11.dtd">
<!-- Creator: CorelDRAW 2017 -->
<svg xmlns="http://www.w3.org/2000/svg" xml:space="preserve" width="48.1752mm" height="48.1752mm" version="1.1" style="shape-rendering:geometricPrecision; text-rendering:geometricPrecision; image-rendering:optimizeQuality; fill-rule:evenodd; clip-rule:evenodd"
viewBox="0 0 4817.52 4817.52"
 xmlns:xlink="http://www.w3.org/1999/xlink">
 <defs>
  <style type="text/css">
   <![CDATA[
    .fil0 {fill:#008DD2}
   ]]>
  </style>
 </defs>
 <g id="Слой_x0020_1">
  <metadata id="CorelCorpID_0Corel-Layer"/>
  <path class="fil0" d="M510.14 552.28l2408.33 0c93.26,0 169.33,76.07 169.33,169.33l0 12.28c0,93.26 -76.07,169.33 -169.33,169.33l-2353.72 0c-116.56,0 -211.66,95.1 -211.66,211.66l0 3137.89c0,116.58 95.08,211.66 211.66,211.66l3137.89 0c116.58,0 211.66,-95.08 211.66,-211.66l0 -2353.72c0,-93.26 76.07,-169.33 169.33,-169.33l12.28 0c93.26,0 169.33,76.07 169.33,169.33l0 2408.33c0,279.79 -228.2,507.99 -507.99,507.99l-3247.11 0c-279.79,0 -507.99,-228.2 -507.99,-507.99l0 -3247.11c0,-279.79 228.2,-507.99 507.99,-507.99z"/>
  <polygon class="fil0" points="4073.21,496.15 4321.37,744.31 2998.38,2067.3 2750.22,1819.14 "/>
  <path class="fil0" d="M2584.65 1984.71l248.16 248.16 -551.92 551.91c-65.95,65.94 -173.51,65.94 -239.46,0l-8.69 -8.69c-65.94,-65.95 -65.94,-173.51 0,-239.46l551.91 -551.92z"/>
  <path class="fil0" d="M4686.95 121.88l8.69 8.69c65.94,65.95 65.94,173.51 0,239.46l-208.71 208.71 -248.15 -248.15 208.71 -208.71c65.95,-65.94 173.51,-65.94 239.46,0z"/>
 </g>
</svg>
